<svg xmlns="http://www.w3.org/2000/svg" viewBox="0 0 240 240" role="img" aria-label="Colorful balloons">
  <ellipse cx="80" cy="66" rx="34" ry="45" fill="#ff4fb8"/>
  <ellipse cx="132" cy="55" rx="36" ry="49" fill="#45caff"/>
  <ellipse cx="166" cy="92" rx="34" ry="45" fill="#ffe35c"/>
  <path d="M80 111c-12 31-16 58-7 96" fill="none" stroke="#8b5cf6" stroke-width="4"/>
  <path d="M132 104c8 33 6 65-14 100" fill="none" stroke="#8b5cf6" stroke-width="4"/>
  <path d="M166 137c6 28-3 51-31 73" fill="none" stroke="#8b5cf6" stroke-width="4"/>
  <path d="M73 109h14l-7 12Z" fill="#c026d3"/>
  <path d="M124 101h16l-8 13Z" fill="#0284c7"/>
  <path d="M158 135h16l-8 13Z" fill="#f59e0b"/>
  <circle cx="69" cy="45" r="9" fill="#fff" opacity=".55"/>
  <circle cx="120" cy="32" r="9" fill="#fff" opacity=".55"/>
  <circle cx="154" cy="70" r="9" fill="#fff" opacity=".55"/>
</svg>
