<svg xmlns="http://www.w3.org/2000/svg" viewBox="0 0 240 240" role="img" aria-label="Cartoon toy car">
  <defs>
    <linearGradient id="paint" x1="37" x2="209" y1="88" y2="158" gradientUnits="userSpaceOnUse">
      <stop stop-color="#ff4fb8"/><stop offset=".55" stop-color="#ff7a18"/><stop offset="1" stop-color="#ffe35c"/>
    </linearGradient>
  </defs>
  <path d="M49 133c9-32 33-49 70-49h33c20 0 33 17 42 49h10c10 0 18 8 18 18v20H22v-20c0-10 8-18 18-18Z" fill="url(#paint)"/>
  <path d="M83 128c8-18 21-29 39-29h23c13 0 21 10 27 29Z" fill="#e7f9ff"/>
  <path d="M125 99v29" stroke="#45caff" stroke-width="6"/>
  <circle cx="70" cy="174" r="28" fill="#18123a"/><circle cx="177" cy="174" r="28" fill="#18123a"/>
  <circle cx="70" cy="174" r="12" fill="#45caff"/><circle cx="177" cy="174" r="12" fill="#45caff"/>
  <rect x="33" y="143" width="27" height="13" rx="6" fill="#fff"/>
  <rect x="186" y="143" width="27" height="13" rx="6" fill="#fff8b5"/>
</svg>
