<svg xmlns="http://www.w3.org/2000/svg" viewBox="0 0 240 240" role="img" aria-label="Super hero action figure">
  <path d="M74 104c-11 24-19 58-24 102 45-19 95-19 140 0-5-44-13-78-24-102Z" fill="#ff4fb8"/>
  <path d="M86 91h68l21 96H65Z" fill="#2563eb"/>
  <circle cx="120" cy="61" r="38" fill="#ffd3b6"/>
  <path d="M82 59c6-29 26-43 54-34 16 5 27 18 29 34-22-9-50-9-83 0Z" fill="#15133c"/>
  <path d="M84 67h72c-5 21-17 31-36 31S89 88 84 67Z" fill="#15133c"/>
  <circle cx="106" cy="75" r="5" fill="#fff"/><circle cx="134" cy="75" r="5" fill="#fff"/>
  <path d="M103 117h34l-17 35Z" fill="#ffe35c"/>
  <path d="M79 111 42 151" stroke="#ffd3b6" stroke-width="18" stroke-linecap="round"/>
  <path d="M161 111l37 40" stroke="#ffd3b6" stroke-width="18" stroke-linecap="round"/>
  <path d="M94 187v34M146 187v34" stroke="#15133c" stroke-width="18" stroke-linecap="round"/>
</svg>
