<svg xmlns="http://www.w3.org/2000/svg" viewBox="0 0 240 240" role="img" aria-label="Cartoon teddy bear">
  <defs>
    <linearGradient id="fur" x1="44" x2="196" y1="24" y2="220" gradientUnits="userSpaceOnUse">
      <stop stop-color="#ffd78a"/><stop offset="1" stop-color="#c47438"/>
    </linearGradient>
    <filter id="s" x="-20%" y="-20%" width="140%" height="140%"><feDropShadow dx="0" dy="14" stdDeviation="10" flood-color="#3d2348" flood-opacity=".2"/></filter>
  </defs>
  <g filter="url(#s)">
    <circle cx="67" cy="72" r="36" fill="#b96b34"/><circle cx="173" cy="72" r="36" fill="#b96b34"/>
    <circle cx="67" cy="72" r="20" fill="#ffd99b"/><circle cx="173" cy="72" r="20" fill="#ffd99b"/>
    <ellipse cx="120" cy="129" rx="78" ry="86" fill="url(#fur)"/>
    <circle cx="88" cy="111" r="11" fill="#21153f"/><circle cx="152" cy="111" r="11" fill="#21153f"/>
    <ellipse cx="120" cy="140" rx="31" ry="25" fill="#ffe0ac"/>
    <circle cx="120" cy="130" r="10" fill="#5f3422"/>
    <path d="M104 148c9 13 23 13 32 0" fill="none" stroke="#5f3422" stroke-linecap="round" stroke-width="7"/>
    <circle cx="56" cy="152" r="28" fill="#c8793e"/><circle cx="184" cy="152" r="28" fill="#c8793e"/>
    <ellipse cx="93" cy="207" rx="29" ry="21" fill="#b96b34"/><ellipse cx="147" cy="207" rx="29" ry="21" fill="#b96b34"/>
    <path d="M94 177c21 14 32 14 52 0l-8 35H102Z" fill="#ff4fb8"/>
    <circle cx="88" cy="111" r="4" fill="#fff"/><circle cx="152" cy="111" r="4" fill="#fff"/>
  </g>
</svg>
